<svg xmlns="http://www.w3.org/2000/svg" viewBox="0 0 7387.36 1055.36"><g transform="translate(139.68,139.68)"><g transform="translate(-8.000,770.000)"><path d="M288.0 -102 444.0 -551H565.0L355.0 0H219.0L10.0 -551H132.0Z M614.0 -276Q614.0 -360 651.0 -425.0Q688.0 -490 752.0 -525.0Q816.0 -560 895.0 -560Q974.0 -560 1038.0 -525.0Q1102.0 -490 1139.0 -425.0Q1176.0 -360 1176.0 -276Q1176.0 -192 1138.0 -127.0Q1100.0 -62 1034.5 -26.5Q969.0 9 890.0 9Q812.0 9 749.0 -26.5Q686.0 -62 650.0 -126.5Q614.0 -191 614.0 -276ZM1059.0 -276Q1059.0 -336 1036.0 -377.5Q1013.0 -419 975.0 -440.0Q937.0 -461 893.0 -461Q849.0 -461 811.5 -440.0Q774.0 -419 752.0 -377.5Q730.0 -336 730.0 -276Q730.0 -187 775.5 -138.5Q821.0 -90 890.0 -90Q934.0 -90 972.5 -111.0Q1011.0 -132 1035.0 -174.0Q1059.0 -216 1059.0 -276Z M1274.0 -697Q1274.0 -728 1295.0 -749.0Q1316.0 -770 1347.0 -770Q1377.0 -770 1398.0 -749.0Q1419.0 -728 1419.0 -697Q1419.0 -666 1398.0 -645.0Q1377.0 -624 1347.0 -624Q1316.0 -624 1295.0 -645.0Q1274.0 -666 1274.0 -697ZM1403.0 -551V0H1289.0V-551Z M1785.0 -560Q1885.0 -560 1950.5 -512.5Q2016.0 -465 2039.0 -377H1916.0Q1901.0 -418 1868.0 -441.0Q1835.0 -464 1785.0 -464Q1715.0 -464 1673.5 -414.5Q1632.0 -365 1632.0 -276Q1632.0 -187 1673.5 -137.0Q1715.0 -87 1785.0 -87Q1884.0 -87 1916.0 -174H2039.0Q2015.0 -90 1949.0 -40.5Q1883.0 9 1785.0 9Q1706.0 9 1645.0 -26.5Q1584.0 -62 1549.5 -126.5Q1515.0 -191 1515.0 -276Q1515.0 -361 1549.5 -425.5Q1584.0 -490 1645.0 -525.0Q1706.0 -560 1785.0 -560Z M2654.0 -233H2233.0Q2238.0 -167 2282.0 -127.0Q2326.0 -87 2390.0 -87Q2482.0 -87 2520.0 -164H2643.0Q2618.0 -88 2552.5 -39.5Q2487.0 9 2390.0 9Q2311.0 9 2248.5 -26.5Q2186.0 -62 2150.5 -126.5Q2115.0 -191 2115.0 -276Q2115.0 -361 2149.5 -425.5Q2184.0 -490 2246.5 -525.0Q2309.0 -560 2390.0 -560Q2468.0 -560 2529.0 -526.0Q2590.0 -492 2624.0 -430.5Q2658.0 -369 2658.0 -289Q2658.0 -258 2654.0 -233ZM2539.0 -325Q2538.0 -388 2494.0 -426.0Q2450.0 -464 2385.0 -464Q2326.0 -464 2284.0 -426.5Q2242.0 -389 2234.0 -325Z M3002.0 -560Q3102.0 -560 3167.5 -512.5Q3233.0 -465 3256.0 -377H3133.0Q3118.0 -418 3085.0 -441.0Q3052.0 -464 3002.0 -464Q2932.0 -464 2890.5 -414.5Q2849.0 -365 2849.0 -276Q2849.0 -187 2890.5 -137.0Q2932.0 -87 3002.0 -87Q3101.0 -87 3133.0 -174H3256.0Q3232.0 -90 3166.0 -40.5Q3100.0 9 3002.0 9Q2923.0 9 2862.0 -26.5Q2801.0 -62 2766.5 -126.5Q2732.0 -191 2732.0 -276Q2732.0 -361 2766.5 -425.5Q2801.0 -490 2862.0 -525.0Q2923.0 -560 3002.0 -560Z M3871.0 -233H3450.0Q3455.0 -167 3499.0 -127.0Q3543.0 -87 3607.0 -87Q3699.0 -87 3737.0 -164H3860.0Q3835.0 -88 3769.5 -39.5Q3704.0 9 3607.0 9Q3528.0 9 3465.5 -26.5Q3403.0 -62 3367.5 -126.5Q3332.0 -191 3332.0 -276Q3332.0 -361 3366.5 -425.5Q3401.0 -490 3463.5 -525.0Q3526.0 -560 3607.0 -560Q3685.0 -560 3746.0 -526.0Q3807.0 -492 3841.0 -430.5Q3875.0 -369 3875.0 -289Q3875.0 -258 3871.0 -233ZM3756.0 -325Q3755.0 -388 3711.0 -426.0Q3667.0 -464 3602.0 -464Q3543.0 -464 3501.0 -426.5Q3459.0 -389 3451.0 -325Z M4491.0 -325V0H4378.0V-308Q4378.0 -382 4341.0 -421.5Q4304.0 -461 4240.0 -461Q4176.0 -461 4138.5 -421.5Q4101.0 -382 4101.0 -308V0H3987.0V-551H4101.0V-488Q4129.0 -522 4172.5 -541.0Q4216.0 -560 4265.0 -560Q4330.0 -560 4381.5 -533.0Q4433.0 -506 4462.0 -453.0Q4491.0 -400 4491.0 -325Z M4769.0 -458V-153Q4769.0 -122 4783.5 -108.5Q4798.0 -95 4833.0 -95H4903.0V0H4813.0Q4736.0 0 4695.0 -36.0Q4654.0 -72 4654.0 -153V-458H4589.0V-551H4654.0V-688H4769.0V-551H4903.0V-458Z M5287.0 -560V-442H5258.0Q5191.0 -442 5156.5 -408.0Q5122.0 -374 5122.0 -290V0H5008.0V-551H5122.0V-471Q5147.0 -513 5188.5 -536.5Q5230.0 -560 5287.0 -560Z M5614.0 -560Q5679.0 -560 5727.5 -534.5Q5776.0 -509 5805.0 -471V-551H5920.0V0H5805.0V-82Q5776.0 -43 5726.0 -17.0Q5676.0 9 5612.0 9Q5541.0 9 5482.0 -27.5Q5423.0 -64 5388.5 -129.5Q5354.0 -195 5354.0 -278Q5354.0 -361 5388.5 -425.0Q5423.0 -489 5482.5 -524.5Q5542.0 -560 5614.0 -560ZM5638.0 -461Q5594.0 -461 5556.0 -439.5Q5518.0 -418 5494.5 -376.5Q5471.0 -335 5471.0 -278Q5471.0 -221 5494.5 -178.0Q5518.0 -135 5556.5 -112.5Q5595.0 -90 5638.0 -90Q5682.0 -90 5720.0 -112.0Q5758.0 -134 5781.5 -176.5Q5805.0 -219 5805.0 -276Q5805.0 -333 5781.5 -375.0Q5758.0 -417 5720.0 -439.0Q5682.0 -461 5638.0 -461Z" fill="#0A1130"/><path d="M6043.0 -66Q6043.0 -97 6064.0 -118.0Q6085.0 -139 6116.0 -139Q6146.0 -139 6167.0 -118.0Q6188.0 -97 6188.0 -66Q6188.0 -35 6167.0 -14.0Q6146.0 7 6116.0 7Q6085.0 7 6064.0 -14.0Q6043.0 -35 6043.0 -66Z M6533.0 -560Q6598.0 -560 6646.5 -534.5Q6695.0 -509 6724.0 -471V-551H6839.0V0H6724.0V-82Q6695.0 -43 6645.0 -17.0Q6595.0 9 6531.0 9Q6460.0 9 6401.0 -27.5Q6342.0 -64 6307.5 -129.5Q6273.0 -195 6273.0 -278Q6273.0 -361 6307.5 -425.0Q6342.0 -489 6401.5 -524.5Q6461.0 -560 6533.0 -560ZM6557.0 -461Q6513.0 -461 6475.0 -439.5Q6437.0 -418 6413.5 -376.5Q6390.0 -335 6390.0 -278Q6390.0 -221 6413.5 -178.0Q6437.0 -135 6475.5 -112.5Q6514.0 -90 6557.0 -90Q6601.0 -90 6639.0 -112.0Q6677.0 -134 6700.5 -176.5Q6724.0 -219 6724.0 -276Q6724.0 -333 6700.5 -375.0Q6677.0 -417 6639.0 -439.0Q6601.0 -461 6557.0 -461Z M6974.0 -697Q6974.0 -728 6995.0 -749.0Q7016.0 -770 7047.0 -770Q7077.0 -770 7098.0 -749.0Q7119.0 -728 7119.0 -697Q7119.0 -666 7098.0 -645.0Q7077.0 -624 7047.0 -624Q7016.0 -624 6995.0 -645.0Q6974.0 -666 6974.0 -697ZM7103.0 -551V0H6989.0V-551Z" fill="#154CB6"/></g></g></svg>
